<svg width="128" height="40" fill="none" xmlns="http://www.w3.org/2000/svg"><path d="M30 20c0 5.523-4.477 10-10 10s-10-4.477-10-10h20z" fill="#06C" fill-opacity=".6"/><path d="M10 20c0-5.523 4.477-10 10-10s10 4.477 10 10H10z" fill="#06C" fill-opacity=".2"/><path d="M30.607 9.393c5.857 5.858 5.857 15.356 0 21.214M26.345 6.404c-5.553-2.592-12.367-1.595-16.952 2.99A14.931 14.931 0 0 0 5.54 16m20.805 17.596c-5.553 2.592-12.367 1.595-16.952-2.99A14.931 14.931 0 0 1 5.54 24" stroke="#000" stroke-width="2" stroke-linecap="round"/><path d="M55.489 27V10.9h2.99V27h-2.99zm-10.327 0V10.9h2.99V27h-2.99zm1.242-6.624V17.57h10.534v2.806H46.404zm19.885 6.854c-.874 0-1.633-.192-2.277-.575a3.835 3.835 0 0 1-1.472-1.679c-.337-.736-.506-1.61-.506-2.622v-7.475h2.83v6.877c0 .644.099 1.196.298 1.656.2.445.491.79.874 1.035.384.245.844.368 1.38.368.399 0 .76-.061 1.081-.184a2.83 2.83 0 0 0 .874-.552c.246-.245.437-.529.575-.851.138-.337.207-.698.207-1.081v-7.268h2.83V27h-2.76l-.047-2.53.506-.276a3.932 3.932 0 0 1-.943 1.564c-.429.445-.943.805-1.54 1.081a4.725 4.725 0 0 1-1.91.391zm16.472 0a5.598 5.598 0 0 1-1.587-.23 5.755 5.755 0 0 1-1.38-.667 4.67 4.67 0 0 1-1.035-.92c-.276-.353-.46-.705-.552-1.058l.667-.299-.069 2.898h-2.737V9.98h2.83v7.705l-.507-.23c.077-.368.245-.713.506-1.035a4.418 4.418 0 0 1 1.012-.897c.399-.276.836-.49 1.311-.644a4.303 4.303 0 0 1 1.45-.253c1.088 0 2.046.268 2.874.805.843.537 1.503 1.28 1.978 2.231.49.95.736 2.032.736 3.243 0 1.227-.238 2.315-.713 3.266-.475.95-1.135 1.702-1.978 2.254-.828.537-1.763.805-2.806.805zm-.598-2.484c.644 0 1.22-.161 1.725-.483.506-.337.905-.79 1.196-1.357.291-.583.437-1.25.437-2.001 0-.736-.146-1.388-.437-1.955a3.205 3.205 0 0 0-1.173-1.334c-.506-.322-1.089-.483-1.748-.483-.66 0-1.242.161-1.748.483a3.366 3.366 0 0 0-1.196 1.334c-.291.567-.437 1.219-.437 1.955 0 .751.146 1.418.437 2.001.291.567.69 1.02 1.196 1.357.506.322 1.089.483 1.748.483zm15.08 2.484a5.598 5.598 0 0 1-1.587-.23 5.755 5.755 0 0 1-1.38-.667 4.67 4.67 0 0 1-1.035-.92c-.276-.353-.46-.705-.552-1.058l.667-.299-.069 2.898H90.55V9.98h2.829v7.705l-.506-.23c.077-.368.245-.713.506-1.035a4.418 4.418 0 0 1 1.012-.897c.399-.276.836-.49 1.311-.644a4.303 4.303 0 0 1 1.449-.253c1.089 0 2.047.268 2.875.805.843.537 1.503 1.28 1.978 2.231.491.95.736 2.032.736 3.243 0 1.227-.238 2.315-.713 3.266-.475.95-1.135 1.702-1.978 2.254-.828.537-1.763.805-2.806.805zm-.598-2.484c.644 0 1.219-.161 1.725-.483.506-.337.905-.79 1.196-1.357.291-.583.437-1.25.437-2.001 0-.736-.146-1.388-.437-1.955a3.205 3.205 0 0 0-1.173-1.334c-.506-.322-1.089-.483-1.748-.483-.66 0-1.242.161-1.748.483a3.366 3.366 0 0 0-1.196 1.334c-.291.567-.437 1.219-.437 1.955 0 .751.146 1.418.437 2.001.291.567.69 1.02 1.196 1.357.506.322 1.089.483 1.748.483zm8.41 2.254V9.98h2.852V27h-2.852zm11.265.23c-1.212 0-2.293-.268-3.243-.805a6.11 6.11 0 0 1-2.254-2.254c-.552-.95-.828-2.032-.828-3.243 0-1.211.276-2.292.828-3.243a5.94 5.94 0 0 1 2.254-2.231c.95-.552 2.031-.828 3.243-.828 1.196 0 2.269.276 3.22.828a5.784 5.784 0 0 1 2.231 2.231c.552.95.828 2.032.828 3.243 0 1.211-.276 2.292-.828 3.243a5.948 5.948 0 0 1-2.231 2.254c-.951.537-2.024.805-3.22.805zm0-2.507c.659 0 1.242-.169 1.748-.506.521-.337.927-.79 1.219-1.357.306-.567.452-1.211.437-1.932.015-.736-.131-1.388-.437-1.955a3.316 3.316 0 0 0-1.219-1.334c-.506-.337-1.089-.506-1.748-.506a3.3 3.3 0 0 0-1.794.506 3.27 3.27 0 0 0-1.219 1.357c-.292.567-.437 1.211-.437 1.932 0 .72.145 1.365.437 1.932.291.567.697 1.02 1.219 1.357a3.3 3.3 0 0 0 1.794.506z" fill="#000"/></svg>